HIERARCHY
ROOT root
{
	OFFSET	0	13.1	24.9
	CHANNELS 6  Xposition Yposition Zposition Xrotation Yrotation Zrotation
	JOINT spine_1
	{
		OFFSET	0	9.99999	0
		CHANNELS 3  Xrotation Yrotation Zrotation
		JOINT spine_2
		{
			OFFSET	0	112	-10
			CHANNELS 3  Xrotation Yrotation Zrotation
			JOINT spine_3
			{
				OFFSET	0	206.5	19.3
				CHANNELS 3  Xrotation Yrotation Zrotation
				JOINT spine_4
				{
					OFFSET	0	110.4	14.6
					CHANNELS 3  Xrotation Yrotation Zrotation
					JOINT neck_1
					{
						OFFSET	0	71.8	-50.3
						CHANNELS 3  Xrotation Yrotation Zrotation
						JOINT neck_2
						{
							OFFSET	0	86.2	-25.8
							CHANNELS 3  Xrotation Yrotation Zrotation
							JOINT head_ee
							{
								OFFSET	0	179.8	-8.7
								CHANNELS 3  Xrotation Yrotation Zrotation
								End Site
								{
									OFFSET	1	0	0
								}
							}
						}
					}
					JOINT left_clavicle
					{
						OFFSET	-43.2	22.4	-70.8
						CHANNELS 3  Xrotation Yrotation Zrotation
						JOINT left_shoulder
						{
							OFFSET	-93.9	-5.79999	48.7
							CHANNELS 3  Xrotation Yrotation Zrotation
							JOINT left_elbow
							{
								OFFSET	-291.4	-30.8	15.2
								CHANNELS 3  Xrotation Yrotation Zrotation
								JOINT left_lowarm_twist
								{
									OFFSET	-110.7	-3.89999	13.6
									CHANNELS 3  Xrotation Yrotation Zrotation
									JOINT left_hand
									{
										OFFSET	-110.7	-3.89999	13.6
										CHANNELS 3  Xrotation Yrotation Zrotation
										JOINT left_ee
										{
											OFFSET	-80.8	-5.10001	12.1
											CHANNELS 3  Xrotation Yrotation Zrotation
											End Site
											{
												OFFSET	1	0	0
											}
										}
									}
								}
							}
						}
					}
					JOINT right_clavicle
					{
						OFFSET	43.2	22.4	-70.8
						CHANNELS 3  Xrotation Yrotation Zrotation
						JOINT right_shoulder
						{
							OFFSET	93.9	-5.79999	48.7
							CHANNELS 3  Xrotation Yrotation Zrotation
							JOINT right_elbow
							{
								OFFSET	291.4	-30.8	15.2
								CHANNELS 3  Xrotation Yrotation Zrotation
								JOINT right_lowarm_twist
								{
									OFFSET	110.7	-3.89999	13.6
									CHANNELS 3  Xrotation Yrotation Zrotation
									JOINT right_hand
									{
										OFFSET	110.7	-3.89999	13.6
										CHANNELS 3  Xrotation Yrotation Zrotation
										JOINT right_ee
										{
											OFFSET	80.8	-5.10001	12.1
											CHANNELS 3  Xrotation Yrotation Zrotation
											End Site
											{
												OFFSET	1	0	0
											}
										}
									}
								}
							}
						}
					}
				}
			}
		}
	}
	JOINT left_hip
	{
		OFFSET	-82.8	-127.5	0.300001
		CHANNELS 3  Xrotation Yrotation Zrotation
		JOINT left_knee
		{
			OFFSET	-28.2	-396.7	2.2
			CHANNELS 3  Xrotation Yrotation Zrotation
			JOINT left_ankle
			{
				OFFSET	-11.7	-411.3	35.4
				CHANNELS 3  Xrotation Yrotation Zrotation
				JOINT left_toes
				{
					OFFSET	0	-60	-88.6
					CHANNELS 3  Xrotation Yrotation Zrotation
					JOINT left_foot_ee
					{
						OFFSET	-22.5	-16.5	-42.2
						CHANNELS 3  Xrotation Yrotation Zrotation
						End Site
						{
							OFFSET	1	0	0
						}
					}
				}
			}
		}
	}
	JOINT right_hip
	{
		OFFSET	82.8	-127.5	0.300001
		CHANNELS 3  Xrotation Yrotation Zrotation
		JOINT right_knee
		{
			OFFSET	28.2	-396.7	2.2
			CHANNELS 3  Xrotation Yrotation Zrotation
			JOINT right_ankle
			{
				OFFSET	11.7	-411.3	35.4
				CHANNELS 3  Xrotation Yrotation Zrotation
				JOINT right_toes
				{
					OFFSET	0	-60	-88.6
					CHANNELS 3  Xrotation Yrotation Zrotation
					JOINT right_foot_ee
					{
						OFFSET	22.5	-16.5	-42.2
						CHANNELS 3  Xrotation Yrotation Zrotation
						End Site
						{
							OFFSET	1	0	0
						}
					}
				}
			}
		}
	}
}
MOTION
Frames: 11
Frame Time: 0.02
653.908 665.768 -433.051 160.624 -70.2719 156.054 -3.22799 0.571984 3.91218 -3.21953 0.322081 3.94059 -3.18568 -0.731262 3.8856 -3.20672 -0.108926 3.95221 -17.8766 -3.40114 7.37914 -17.8604 -10.5629 5.60743 -0.0 0.0 -0.0 -3.0612 19.8108 -2.20745 -11.5317 -17.3041 74.2225 0.18635 -5.27428 0.00858314 24.1805 0.209277 -3.05891 -0.926605 28.9672 6.29222 -0.0 0.0 -0.0 11.7148 27.984 -22.4958 13.8761 30.582 -56.6603 1.75606 41.0163 -0.656893 46.9581 0.759745 5.78482 6.21915 21.234 -33.5718 0.0 0.0 0.0 36.5365 43.3422 -13.96 -10.9515 0.293736 1.65248 -8.71711 -10.8852 1.37668 -5.8919 0.0 0.0 -0.0 0.0 -0.0 -17.3251 17.5519 5.92845 -33.0904 0.086655 -5.0076 39.364 4.10466 4.86369 -18.9441 0.0 0.0 0.0 0.0 0.0 
673.119 667.264 -430.557 165.394 -69.2621 161.229 -3.03498 1.06608 3.89344 -3.02692 0.816374 3.95326 -2.95786 -0.240692 4.02937 -2.98029 0.398167 4.01689 -17.2933 -1.8424 7.36151 -17.2086 -7.62892 6.2183 -0.0 0.0 -0.0 -2.84887 19.4081 -1.96998 -12.3936 -17.2195 72.8286 0.240468 -6.79328 0.0142723 21.8021 0.246237 -2.75738 -1.07529 28.9045 5.46455 -0.0 0.0 -0.0 13.2092 26.9481 -26.0452 13.4787 30.8023 -55.7475 1.63322 38.9715 -0.577931 46.3157 0.717855 5.71408 5.56654 19.9069 -29.5089 0.0 0.0 0.0 37.0154 42.202 -15.1463 -11.1282 0.29587 1.6795 -12.6101 -10.2931 1.99478 -5.00218 0.0 0.0 -0.0 0.0 -0.0 -18.6291 16.5807 6.02051 -28.7239 -0.0908231 -4.36119 37.8539 6.93935 4.77355 -18.189 0.0 0.0 0.0 0.0 0.0 
692.418 668.848 -433.238 167.329 -68.3529 163.298 -2.86796 1.32812 3.87611 -2.86025 1.07898 3.95261 -2.77292 0.0269456 4.09692 -2.7957 0.673103 4.04143 -16.5256 -0.790862 6.64809 -16.4315 -5.29809 5.96399 -0.0 0.0 -0.0 -2.43012 19.2968 -1.3652 -12.9892 -17.0037 71.9226 0.272863 -7.69811 0.0183582 20.4372 0.261785 -2.58373 -1.05694 28.5262 5.40576 -0.0 0.0 -0.0 13.6755 26.8083 -27.1442 12.4397 30.9483 -55.2015 1.57776 38.0076 -0.543415 45.6087 0.672673 5.63569 5.30175 19.2005 -27.9807 0.0 0.0 0.0 36.8539 41.6142 -15.9175 -12.684 0.311059 1.91773 -15.8341 -10.7847 2.51987 -4.31279 0.0 0.0 -0.0 0.0 -0.0 -19.6604 17.602 6.76757 -27.2144 -0.140642 -4.13488 36.5939 8.39462 4.68435 -17.8591 0.0 0.0 0.0 0.0 0.0 
717.741 670.306 -441.556 168.904 -67.0625 164.82 -2.76757 1.43547 3.90027 -2.75988 1.18458 3.98353 -2.66449 0.129199 4.15365 -2.68771 0.783018 4.08135 -14.082 1.79662 6.5673 -13.9606 -0.579669 6.79921 -0.0 0.0 -0.0 -2.08684 19.4004 -0.835057 -13.9913 -16.8403 71.4337 0.338914 -9.53059 0.0282528 19.6268 0.269058 -2.48047 -0.97236 28.7518 5.95695 -0.0 0.0 -0.0 13.7173 26.0571 -27.3352 11.1431 30.6349 -54.8663 1.59927 38.3845 -0.556712 43.3942 0.537479 5.38666 5.32259 16.3804 -29.8322 0.0 0.0 0.0 37.333 40.853 -16.5077 -18.301 0.311989 2.7792 -15.6586 -8.53501 2.45928 -1.08314 0.0 0.0 -0.0 0.0 -0.0 -20.6993 18.8246 7.09907 -26.1255 -0.172864 -3.97088 37.3587 5.73214 4.7079 -17.3027 0.0 0.0 0.0 0.0 0.0 
747.159 670.016 -446.173 170.132 -66.1734 166.468 -2.66952 1.43436 3.8917 -2.66188 1.18401 3.97491 -2.56701 0.13792 4.14494 -2.59011 0.790258 4.07137 -12.2032 3.68787 4.49797 -12.156 4.11508 5.36064 -0.0 0.0 -0.0 -1.82839 20.1129 -0.334121 -13.7143 -17.0298 71.1347 0.384971 -10.7971 0.0363806 18.6882 0.275655 -2.36077 -0.7961 28.8266 6.94097 -0.0 0.0 -0.0 13.534 26.4759 -26.857 9.41884 30.208 -54.9657 1.64165 39.1158 -0.583242 44.069 0.577651 5.46309 5.13355 15.8812 -28.6935 0.0 0.0 0.0 38.4568 40.4487 -17.5969 -22.9932 0.248096 3.49614 -18.8249 -6.33325 2.92923 1.15279 -0.0 -0.0 -0.0 0.0 -0.0 -21.5759 19.8752 7.64614 -26.0523 -0.174917 -3.95984 34.3137 5.80565 4.41876 -16.6853 0.0 0.0 0.0 0.0 0.0 
767.274 669.59 -453.266 169.721 -65.2743 166.056 -2.55906 1.42684 3.8994 -2.55137 1.17602 3.98211 -2.45717 0.136311 4.14964 -2.48033 0.789408 4.07626 -7.57274 6.61346 2.75964 -7.56279 10.3542 4.13921 -0.0 0.0 -0.0 -1.7231 20.8907 -0.0550199 -13.5151 -17.3665 70.4958 0.476002 -13.268 0.0553621 19.1276 0.27281 -2.41682 -0.326434 26.1753 8.50597 -0.0 0.0 -0.0 13.3004 27.4735 -26.1886 8.41183 31.2927 -55.1934 1.53365 37.2223 -0.516491 41.1086 0.408177 5.12443 5.36396 13.461 -31.8566 0.0 0.0 0.0 37.7773 40.2257 -16.9232 -26.3506 0.166458 4.00484 -14.6915 -0.348305 2.22956 4.68633 -0.0 -0.0 -0.0 0.0 -0.0 -22.0515 21.1439 8.54969 -29.3307 -0.0691203 -4.45178 34.5425 -0.546553 4.37083 -15.2762 0.0 0.0 0.0 0.0 0.0 
790.702 666.102 -463.026 169.442 -64.3244 166.634 -2.58475 1.33384 3.86858 -2.57708 1.08517 3.94545 -2.4902 0.0550101 4.09137 -2.51287 0.699943 4.03153 -8.70258 6.76057 1.56846 -8.72176 11.5696 3.09314 -0.0 0.0 -0.0 -1.51298 21.2443 0.303047 -13.0728 -17.8539 70.2847 0.574746 -15.8925 0.0802259 18.9977 0.273696 -2.40025 0.279062 27.1216 12.2568 -0.0 0.0 -0.0 13.3478 28.0333 -26.2236 7.39349 33.1948 -54.8409 1.41223 34.9737 -0.444937 40.9153 0.397724 5.10203 4.68481 9.01111 -28.9827 0.0 0.0 0.0 36.3487 39.8079 -16.0542 -27.2515 0.139489 4.14046 -11.2002 1.14073 1.68703 5.56904 -0.0 -0.0 -0.0 0.0 -0.0 -22.3271 22.2886 8.93014 -31.7026 0.0249066 -4.80362 28.659 -3.68272 3.74684 -13.3396 0.0 0.0 0.0 0.0 0.0 
824.931 666.013 -466.608 171.242 -65.0451 168.218 -2.35668 1.0463 3.93297 -2.34843 0.794123 3.99145 -2.2819 -0.224184 4.06339 -2.30469 0.419827 4.04788 -1.11984 9.45594 1.34174 -0.970905 15.9171 2.5442 -0.0 0.0 -0.0 -1.28144 21.0151 0.601182 -13.9026 -20.0033 69.2523 0.552159 -15.2977 0.0741537 18.0404 0.279063 -2.27811 1.25344 20.4105 15.8462 -0.0 0.0 -0.0 13.1911 26.8747 -26.0125 6.34735 35.0317 -56.9032 1.24539 31.6702 -0.353246 38.7071 0.283728 4.84366 4.62919 8.98957 -28.567 0.0 0.0 0.0 34.454 39.7688 -14.4792 -30.1615 0.0378483 4.57544 0.731082 1.24612 -0.107633 2.38915 -0.0 -0.0 -0.0 0.0 -0.0 -23.1939 22.8835 8.61691 -32.521 0.0607242 -4.92409 29.107 -8.7305 3.79543 -12.114 0.0 0.0 0.0 0.0 0.0 
845.553 671.437 -464.463 172.193 -64.7083 169.971 -2.31797 0.873602 3.73429 -2.31044 0.634383 3.78222 -2.25885 -0.32558 3.82115 -2.27911 0.281532 3.82465 -0.0985833 10.4944 3.2405 0.0822402 16.0916 4.58083 -0.0 0.0 -0.0 -1.56468 21.7092 0.301247 -13.0723 -19.7896 68.1202 0.723723 -19.7233 0.125813 17.8143 0.280033 -2.24924 1.46563 19.0281 16.7357 -0.0 0.0 -0.0 13.4194 26.7229 -26.5601 3.31317 37.3039 -56.2878 1.15465 29.7676 -0.306889 35.4595 0.134399 4.45626 4.20566 6.64837 -26.4835 0.0 0.0 0.0 33.6174 38.5483 -14.7716 -30.055 0.0419567 4.55962 8.65311 5.64407 -1.2366 0.650237 -0.0 -0.0 -0.0 0.0 -0.0 -15.9155 24.139 5.05589 -43.1396 0.67849 -6.43211 16.2783 -16.205 2.28578 -13.6737 0.0 0.0 0.0 0.0 0.0 
869.219 677.017 -474.654 174.081 -64.9126 171.74 -2.0176 0.539814 3.61051 -2.01041 0.309129 3.6375 -1.98308 -0.58789 3.60301 -2.00119 -0.0118785 3.65057 0.635729 11.4697 2.57742 0.886166 18.2528 3.88065 -0.0 0.0 -0.0 -1.36237 22.4671 0.702036 -11.9429 -19.9115 67.7852 0.81669 -22.0264 0.158946 16.5767 0.283322 -2.0912 1.69317 17.4267 17.6803 -0.0 0.0 -0.0 13.096 26.2444 -25.8699 1.39362 38.4259 -56.7 0.99667 26.276 -0.232635 33.4 0.0511877 4.20651 3.89826 6.79719 -24.123 0.0 0.0 0.0 31.1918 38.608 -13.6103 -26.6855 0.156681 4.0553 12.5712 3.25548 -1.77577 -1.58428 0.0 0.0 -0.0 0.0 -0.0 -10.7978 24.8708 3.6593 -49.3229 1.16371 -7.25016 10.417 -27.5469 1.57017 -14.4121 0.0 0.0 0.0 0.0 0.0 
898.096 684.7 -478.467 175.464 -63.2571 173.765 -1.81149 0.593724 3.25895 -1.80567 0.385261 3.29008 -1.77735 -0.417205 3.28618 -1.7924 0.106728 3.31081 2.30465 12.6561 2.65289 2.66485 19.9813 3.86362 -0.0 0.0 -0.0 -1.45276 23.5106 0.734358 -10.8919 -20.1807 67.2882 1.0164 -26.7244 0.241438 17.0659 0.28243 -2.15368 2.18396 14.8571 20.0881 -0.0 0.0 -0.0 12.6964 25.3988 -25.0456 -1.66617 39.9075 -57.0619 0.938794 24.9404 -0.207618 30.7024 -0.0441115 3.87521 3.86631 5.66586 -24.4007 0.0 0.0 0.0 28.8819 38.4005 -12.8451 -25.3845 0.193005 3.85894 17.2447 5.24208 -2.38511 -2.29954 0.0 0.0 -0.0 0.0 -0.0 -7.47258 26.1758 2.5011 -53.3914 1.53018 -7.75836 4.08494 -29.4545 0.634518 -16.6665 0.0 0.0 0.0 0.0 0.0 
